<?xml version="1.0" standalone="no"?>
<!DOCTYPE svg PUBLIC "-//W3C//DTD SVG 20010904//EN"
 "http://www.w3.org/TR/2001/REC-SVG-20010904/DTD/svg10.dtd">
<svg version="1.0" xmlns="http://www.w3.org/2000/svg"
 width="16.000000pt" height="16.000000pt" viewBox="0 0 16.000000 16.000000"
 preserveAspectRatio="xMidYMid meet">
<metadata>
Created by potrace 1.11, written by Peter Selinger 2001-2013
</metadata>
<g transform="translate(0.000000,16.000000) scale(0.005776,-0.005776)"
fill="#000000" stroke="none">
<path d="M1 1385 l3 -1385 59 0 59 0 -5 163 c-4 101 -3 143 3 112 6 -41 19
-210 20 -262 0 -8 14 -13 36 -13 l36 0 -4 70 c-3 39 -1 70 3 70 5 0 9 -31 9
-70 0 -39 4 -70 10 -70 6 0 11 67 13 167 l3 168 2 -167 2 -168 84 0 85 0 4 33
4 32 1 -32 c2 -31 4 -33 42 -33 33 0 40 3 40 20 0 11 5 20 10 20 6 0 10 -9 10
-20 0 -19 7 -20 94 -20 66 0 96 4 99 13 4 9 6 9 6 0 1 -7 10 -13 20 -13 11 0
22 6 24 13 4 10 6 10 6 0 1 -10 162 -13 770 -13 l770 0 4 33 4 32 1 -32 2 -33
220 0 220 0 0 1385 0 1385 -63 0 -62 0 1 -72 c1 -40 0 -55 -2 -33 -9 97 -13
105 -44 105 -23 0 -31 -5 -34 -22 -12 -56 -15 -60 -13 -20 l3 42 -52 0 c-33 0
-54 -5 -57 -12 -4 -9 -6 -10 -6 -1 -1 9 -67 12 -255 12 -235 1 -255 0 -259
-16 -4 -17 -5 -17 -6 0 -1 15 -14 17 -121 17 l-119 0 -4 -147 -3 -148 -2 146
-2 147 -59 1 c-49 0 -60 -3 -64 -17 -4 -16 -5 -16 -6 1 -1 14 -12 17 -75 17
-50 0 -76 -4 -79 -12 -4 -10 -6 -10 -6 0 -1 8 -23 12 -75 12 -50 0 -76 -4 -79
-12 -4 -10 -6 -10 -6 0 -1 8 -25 12 -85 12 l-84 0 -5 -32 c-2 -18 -5 -80 -6
-138 -1 -57 -4 -106 -7 -109 -2 -2 -4 59 -4 137 l0 142 -179 0 c-178 0 -180 0
-184 -22 l-4 -23 -2 23 c-1 22 -3 22 -146 22 l-145 0 0 -357 c0 -196 -3 -353
-7 -349 -8 8 -11 99 -12 439 l-1 267 -149 0 -150 0 -4 -32 -4 -33 -1 33 c-2
25 -6 32 -22 32 l-21 0 2 -1385z m2318 1283 c1 -27 -3 -48 -9 -48 -6 0 -9 29
-9 68 2 76 17 59 18 -20z m-932 25 c-3 -10 -5 -2 -5 17 0 19 2 27 5 18 2 -10
2 -26 0 -35z m833 15 c0 -23 -3 -29 -9 -19 -8 12 -4 51 5 51 2 0 4 -15 4 -32z
m227 -35 c-2 -16 -4 -5 -4 22 0 28 2 40 4 28 2 -13 2 -35 0 -50z m230 -40 c-2
-21 -4 -4 -4 37 0 41 2 58 4 38 2 -21 2 -55 0 -75z m-70 75 c-3 -8 -6 -5 -6 6
-1 11 2 17 5 13 3 -3 4 -12 1 -19z m-2067 -2 c0 -3 -4 -8 -10 -11 -5 -3 -10
-1 -10 4 0 6 5 11 10 11 6 0 10 -2 10 -4z m1037 -93 c-2 -21 -4 -6 -4 32 0 39
2 55 4 38 2 -18 2 -50 0 -70z m-800 65 c-3 -8 -6 -5 -6 6 -1 11 2 17 5 13 3
-3 4 -12 1 -19z m-600 -35 c-3 -10 -5 -4 -5 12 0 17 2 24 5 18 2 -7 2 -21 0
-30z m1050 -35 c-2 -13 -4 -3 -4 22 0 25 2 35 4 23 2 -13 2 -33 0 -45z m840
25 c-3 -10 -5 -4 -5 12 0 17 2 24 5 18 2 -7 2 -21 0 -30z m152 -93 c1 -46 -1
-82 -4 -78 -3 3 -8 52 -10 109 -3 62 -1 94 4 79 4 -14 9 -64 10 -110z m-2042
33 c-3 -10 -5 -4 -5 12 0 17 2 24 5 18 2 -7 2 -21 0 -30z m50 -25 c-2 -13 -4
-3 -4 22 0 25 2 35 4 23 2 -13 2 -33 0 -45z m2095 20 c0 -18 2 -52 4 -76 2
-23 -1 -40 -6 -37 -4 3 -11 -1 -13 -7 -3 -7 -6 24 -6 70 -1 48 3 82 9 82 6 0
11 -15 12 -32z m355 -40 c-2 -13 -4 -3 -4 22 0 25 2 35 4 23 2 -13 2 -33 0
-45z m-1040 30 c-3 -8 -6 -5 -6 6 -1 11 2 17 5 13 3 -3 4 -12 1 -19z m-90 -10
c-3 -8 -6 -5 -6 6 -1 11 2 17 5 13 3 -3 4 -12 1 -19z m295 -13 c3 -14 1 -28
-3 -31 -5 -3 -9 9 -9 25 0 38 6 40 12 6z m-1615 -62 c-3 -10 -5 -4 -5 12 0 17
2 24 5 18 2 -7 2 -21 0 -30z m306 17 c-3 -11 -7 -20 -9 -20 -2 0 -4 9 -4 20 0
11 4 20 9 20 5 0 7 -9 4 -20z m244 -17 c-3 -10 -5 -4 -5 12 0 17 2 24 5 18 2
-7 2 -21 0 -30z m623 11 c165 -2 240 -7 240 -18 0 -4 9 -6 20 -3 10 3 20 2 22
-3 4 -10 118 -51 118 -42 0 4 4 3 8 -3 4 -5 41 -27 82 -47 55 -28 76 -34 83
-25 6 9 7 8 5 -3 -3 -9 23 -35 66 -68 113 -86 153 -130 232 -249 118 -177 171
-312 200 -506 84 -572 -303 -1125 -870 -1241 -286 -59 -601 3 -838 165 -32 21
-60 39 -64 39 -8 0 -58 45 -129 116 -92 91 -209 278 -236 377 -10 36 -13 39
-20 22 -9 -18 -9 -18 -5 3 2 12 -7 75 -20 140 -22 101 -25 138 -22 269 2 83 6
149 9 147 4 -2 10 18 14 44 19 125 92 293 190 436 32 46 185 198 245 243 63
47 207 125 263 143 23 7 37 18 37 28 0 13 2 14 9 4 7 -11 18 -11 62 2 30 8 78
18 107 21 39 5 52 11 53 23 0 14 1 15 7 2 6 -12 31 -15 132 -16z m-816 -146
c3 -73 2 -118 -4 -118 -6 0 -10 50 -10 122 0 67 2 119 4 117 2 -2 6 -57 10
-121z m1993 -45 c-2 -32 -3 -6 -3 57 0 63 1 89 3 58 2 -32 2 -84 0 -115z m110
110 c-3 -10 -5 -4 -5 12 0 17 2 24 5 18 2 -7 2 -21 0 -30z m-710 -25 c-3 -8
-6 -5 -6 6 -1 11 2 17 5 13 3 -3 4 -12 1 -19z m680 -40 c-2 -13 -4 -5 -4 17
-1 22 1 32 4 23 2 -10 2 -28 0 -40z m-2560 20 c-3 -8 -6 -5 -6 6 -1 11 2 17 5
13 3 -3 4 -12 1 -19z m430 -10 c-3 -7 -5 -2 -5 12 0 14 2 19 5 13 2 -7 2 -19
0 -25z m2160 -30 c-2 -13 -4 -3 -4 22 0 25 2 35 4 23 2 -13 2 -33 0 -45z m50
30 c-3 -7 -5 -2 -5 12 0 14 2 19 5 13 2 -7 2 -19 0 -25z m-2687 12 c0 -5 -5
-10 -11 -10 -5 0 -7 5 -4 10 3 6 8 10 11 10 2 0 4 -4 4 -10z m17 -32 c-3 -8
-6 -5 -6 6 -1 11 2 17 5 13 3 -3 4 -12 1 -19z m2253 -139 c0 -82 -4 -149 -9
-149 -5 0 -9 70 -10 155 0 97 3 153 9 150 6 -4 10 -71 10 -156z m57 139 c-3
-8 -6 -5 -6 6 -1 11 2 17 5 13 3 -3 4 -12 1 -19z m-2329 -34 c-3 -14 -5 -12
-10 9 -3 19 -2 25 4 19 6 -6 8 -18 6 -28z m179 14 c-3 -8 -6 -5 -6 6 -1 11 2
17 5 13 3 -3 4 -12 1 -19z m300 -25 c-3 -10 -5 -4 -5 12 0 17 2 24 5 18 2 -7
2 -21 0 -30z m2172 -95 c0 -57 -2 -98 -4 -93 -8 24 -12 195 -4 195 5 0 9 -46
8 -102z m-2172 35 c-3 -10 -5 -4 -5 12 0 17 2 24 5 18 2 -7 2 -21 0 -30z
m1920 -60 c-2 -21 -4 -6 -4 32 0 39 2 55 4 38 2 -18 2 -50 0 -70z m-2260 -130
c-1 -43 -3 -10 -3 72 0 83 2 118 3 78 2 -40 2 -107 0 -150z m2402 57 c0 -58 3
-159 6 -225 3 -71 2 -112 -3 -100 -12 28 -24 464 -12 445 5 -8 9 -62 9 -120z
m-1999 80 c0 -5 -2 -10 -4 -10 -3 0 -8 5 -11 10 -3 6 -1 10 4 10 6 0 11 -4 11
-10z m-60 -30 c0 -5 -2 -10 -4 -10 -3 0 -8 5 -11 10 -3 6 -1 10 4 10 6 0 11
-4 11 -10z m1917 -52 c-3 -7 -5 -2 -5 12 0 14 2 19 5 13 2 -7 2 -19 0 -25z
m258 -17 c3 -5 2 -12 -3 -15 -5 -3 -9 1 -9 9 0 17 3 19 12 6z m5 -46 c0 -8 -2
-15 -4 -15 -2 0 -6 7 -10 15 -3 8 -1 15 4 15 6 0 10 -7 10 -15z m-2343 -77
c-2 -13 -4 -5 -4 17 -1 22 1 32 4 23 2 -10 2 -28 0 -40z m2340 -35 c-2 -16 -4
-3 -4 27 0 30 2 43 4 28 2 -16 2 -40 0 -55z m-2650 -60 c-2 -16 -4 -3 -4 27 0
30 2 43 4 28 2 -16 2 -40 0 -55z m220 -130 c-2 -38 -3 -7 -3 67 0 74 1 105 3
68 2 -38 2 -98 0 -135z m100 145 c-3 -7 -5 -2 -5 12 0 14 2 19 5 13 2 -7 2
-19 0 -25z m-260 -10 c-3 -8 -6 -5 -6 6 -1 11 2 17 5 13 3 -3 4 -12 1 -19z
m88 -368 c4 -212 5 -383 2 -380 -3 3 -7 68 -9 146 -3 78 -8 146 -12 153 -7 11
3 476 9 469 2 -2 6 -176 10 -388z m32 283 c-2 -16 -4 -5 -4 22 0 28 2 40 4 28
2 -13 2 -35 0 -50z m2440 45 c-3 -8 -6 -5 -6 6 -1 11 2 17 5 13 3 -3 4 -12 1
-19z m-2620 -30 c-3 -8 -6 -5 -6 6 -1 11 2 17 5 13 3 -3 4 -12 1 -19z m2633
-63 c0 -19 -2 -35 -4 -35 -2 0 -6 16 -8 35 -2 19 0 35 4 35 4 0 8 -16 8 -35z
m-2453 -97 c-2 -24 -4 -7 -4 37 0 44 2 63 4 43 2 -21 2 -57 0 -80z m2370 -93
c-3 -56 -3 -55 -5 17 -1 42 -5 79 -10 82 -4 2 -5 26 -3 53 l5 48 8 -70 c5 -38
7 -97 5 -130z m83 115 c0 -16 -2 -30 -4 -30 -2 0 -6 14 -8 30 -3 17 -1 30 4
30 4 0 8 -13 8 -30z m-2622 -127 c-1 -73 -1 -75 -8 -28 -6 43 -3 105 5 105 2
0 3 -35 3 -77z m169 20 c-3 -10 -5 -4 -5 12 0 17 2 24 5 18 2 -7 2 -21 0 -30z
m2460 -5 c-3 -8 -6 -5 -6 6 -1 11 2 17 5 13 3 -3 4 -12 1 -19z m-2620 -320
c-2 -24 -4 -7 -4 37 0 44 2 63 4 43 2 -21 2 -57 0 -80z m2540 75 c-3 -10 -5
-4 -5 12 0 17 2 24 5 18 2 -7 2 -21 0 -30z m0 -70 c-3 -10 -5 -4 -5 12 0 17 2
24 5 18 2 -7 2 -21 0 -30z m-2430 -45 c-2 -13 -4 -5 -4 17 -1 22 1 32 4 23 2
-10 2 -28 0 -40z m60 -130 c-3 -7 -5 -2 -5 12 0 14 2 19 5 13 2 -7 2 -19 0
-25z m0 -170 c-2 -29 -3 -8 -3 47 0 55 1 79 3 53 2 -26 2 -71 0 -100z m-208
25 c-1 -40 -4 -58 -8 -45 -6 23 -2 112 5 112 2 0 4 -30 3 -67z m2658 -95 c-2
-13 -4 -5 -4 17 -1 22 1 32 4 23 2 -10 2 -28 0 -40z m-2450 -65 c-2 -16 -4 -3
-4 27 0 30 2 43 4 28 2 -16 2 -40 0 -55z m-200 -70 c-2 -21 -4 -4 -4 37 0 41
2 58 4 38 2 -21 2 -55 0 -75z m155 85 c-7 -7 -12 -8 -12 -2 0 14 12 26 19 19
2 -3 -1 -11 -7 -17z m-84 -238 c0 -110 -14 -28 -20 115 l-6 130 13 -90 c7 -49
13 -119 13 -155z m29 208 c-3 -8 -6 -5 -6 6 -1 11 2 17 5 13 3 -3 4 -12 1 -19z
m60 -55 c-2 -16 -4 -5 -4 22 0 28 2 40 4 28 2 -13 2 -35 0 -50z m-60 -35 c-2
-13 -4 -3 -4 22 0 25 2 35 4 23 2 -13 2 -33 0 -45z m100 30 c-3 -8 -6 -5 -6 6
-1 11 2 17 5 13 3 -3 4 -12 1 -19z m180 -30 c-3 -8 -6 -5 -6 6 -1 11 2 17 5
13 3 -3 4 -12 1 -19z m116 -48 c-3 -12 -8 -19 -11 -16 -5 6 5 36 12 36 2 0 2
-9 -1 -20z m-116 -22 c-3 -7 -5 -2 -5 12 0 14 2 19 5 13 2 -7 2 -19 0 -25z
m40 -80 c-2 -24 -4 -7 -4 37 0 44 2 63 4 43 2 -21 2 -57 0 -80z m-290 25 c-3
-10 -5 -2 -5 17 0 19 2 27 5 18 2 -10 2 -26 0 -35z m360 -5 c-2 -13 -4 -5 -4
17 -1 22 1 32 4 23 2 -10 2 -28 0 -40z m-480 -70 c-2 -24 -4 -7 -4 37 0 44 2
63 4 43 2 -21 2 -57 0 -80z m190 -41 c-2 -23 -3 -1 -3 48 0 50 1 68 3 42 2
-26 2 -67 0 -90z m2040 81 c-3 -7 -5 -2 -5 12 0 14 2 19 5 13 2 -7 2 -19 0
-25z m-2109 -138 c-1 -77 -4 -140 -8 -140 -22 0 -29 241 -8 264 7 9 14 15 15
16 1 0 2 -63 1 -140z m356 -72 c-4 -141 -14 -135 -14 8 0 68 4 113 9 106 4 -8
7 -59 5 -114z m-77 65 c-3 -10 -5 -2 -5 17 0 19 2 27 5 18 2 -10 2 -26 0 -35z
m2190 15 c-3 -8 -6 -5 -6 6 -1 11 2 17 5 13 3 -3 4 -12 1 -19z m-2578 -90 c0
-51 -2 -88 -4 -83 -8 23 -11 175 -3 175 4 0 8 -42 7 -92z m388 10 c-3 -7 -5
-2 -5 12 0 14 2 19 5 13 2 -7 2 -19 0 -25z m1821 -24 l-3 -39 -5 47 c-3 26 -1
43 3 39 5 -5 7 -26 5 -47z m-1401 14 c-3 -7 -5 -2 -5 12 0 14 2 19 5 13 2 -7
2 -19 0 -25z m1400 -105 c-3 -10 -5 -2 -5 17 0 19 2 27 5 18 2 -10 2 -26 0
-35z m-2100 -25 c-2 -13 -4 -3 -4 22 0 25 2 35 4 23 2 -13 2 -33 0 -45z m350
-45 c-2 -16 -4 -5 -4 22 0 28 2 40 4 28 2 -13 2 -35 0 -50z m480 -10 c-3 -10
-5 -4 -5 12 0 17 2 24 5 18 2 -7 2 -21 0 -30z m1170 -25 c-3 -8 -6 -5 -6 6 -1
11 2 17 5 13 3 -3 4 -12 1 -19z m-2010 -20 c-3 -7 -5 -2 -5 12 0 14 2 19 5 13
2 -7 2 -19 0 -25z m610 10 c-3 -8 -6 -5 -6 6 -1 11 2 17 5 13 3 -3 4 -12 1
-19z"/>
<path d="M1265 2241 c-370 -61 -641 -312 -732 -677 -23 -94 -23 -304 0 -398
102 -409 435 -676 847 -678 427 -1 783 294 860 712 16 83 16 247 0 330 -74
407 -408 697 -820 714 -58 3 -127 1 -155 -3z"/>
</g>
</svg>
